<?xml version="1.0" encoding="UTF-8" ?>
<!DOCTYPE svg PUBLIC "-//W3C//DTD SVG 1.1//EN" "http://www.w3.org/Graphics/SVG/1.1/DTD/svg11.dtd">
<svg width="1092pt" height="741pt" viewBox="0 0 1092 741" version="1.1" xmlns="http://www.w3.org/2000/svg">
<g id="#fffbdcff">
</g>
<g id="#040303ff">
<path fill="#040303" opacity="1.00" d=" M 40.39 48.21 C 127.72 48.23 215.06 48.10 302.40 48.27 C 302.41 259.77 302.40 471.26 302.40 682.76 C 214.42 682.93 126.44 682.77 38.46 682.84 C 38.44 679.01 38.42 675.19 38.44 671.37 C 48.67 671.55 58.92 671.29 69.02 669.60 C 74.80 669.96 80.24 668.01 85.88 667.24 C 100.76 664.01 115.31 658.02 126.95 648.04 C 133.39 642.28 138.53 634.99 141.43 626.83 C 142.03 623.25 141.67 619.60 141.75 616.00 C 141.77 447.30 141.72 278.60 141.77 109.91 C 142.34 103.41 137.23 98.32 133.00 94.08 C 119.42 82.10 101.23 77.62 83.98 73.84 C 77.36 73.08 70.93 71.05 64.21 71.34 C 56.35 69.92 48.44 69.21 40.44 69.51 C 40.36 62.41 40.46 55.31 40.39 48.21 Z" />
<path fill="#040303" opacity="1.00" d=" M 963.83 50.07 C 965.46 47.88 968.74 49.54 968.52 52.16 C 975.81 91.32 1004.47 125.41 1041.33 140.23 C 1049.31 143.88 1057.99 145.45 1066.41 147.71 C 1066.40 148.60 1066.38 150.37 1066.38 151.26 C 1037.45 156.26 1010.44 172.06 992.31 195.19 C 981.60 208.57 973.83 224.29 969.65 240.91 C 968.97 243.46 968.51 246.07 968.43 248.71 C 967.40 248.95 965.32 249.42 964.28 249.65 C 962.19 242.27 960.57 234.73 957.85 227.53 C 951.30 210.48 940.91 194.91 927.63 182.38 C 910.88 166.57 889.51 155.73 866.87 151.56 C 864.89 151.53 864.51 147.23 866.65 147.32 C 872.45 145.78 878.37 144.65 884.04 142.62 C 919.51 130.61 948.54 101.22 959.74 65.45 C 961.53 60.44 962.50 55.20 963.83 50.07 Z" />
<path fill="#040303" opacity="1.00" d=" M 550.74 61.61 C 550.39 58.38 549.57 54.56 551.01 51.60 C 653.02 51.43 755.04 51.60 857.05 51.57 C 858.73 51.33 860.86 52.36 860.60 54.33 C 860.72 60.09 860.49 65.85 860.75 71.61 C 854.49 71.85 848.18 71.20 841.97 72.25 C 834.24 72.37 826.88 75.08 819.20 75.62 C 812.86 77.43 806.37 78.84 800.36 81.64 C 792.61 85.66 784.79 90.22 779.43 97.30 C 774.62 102.94 771.31 109.67 769.02 116.68 C 766.90 120.95 767.77 125.90 765.68 130.20 C 765.12 140.35 765.60 150.55 765.36 160.72 C 764.16 170.43 764.89 180.24 764.61 190.00 C 764.46 205.33 764.55 220.68 764.25 236.01 C 763.12 242.54 764.05 249.20 763.26 255.76 C 754.92 285.78 739.79 314.46 716.99 335.99 C 696.97 355.58 670.54 367.75 643.21 372.98 C 640.87 373.17 638.33 374.53 639.16 377.32 C 644.05 379.73 649.59 380.12 654.74 381.76 C 682.65 389.87 708.59 405.24 728.49 426.50 C 743.66 443.15 754.73 463.53 760.33 485.36 C 762.14 492.79 764.20 500.27 763.67 508.00 C 763.68 531.00 763.63 554.01 763.69 577.01 C 764.70 582.95 764.09 589.03 765.26 594.95 C 765.19 601.92 767.32 608.61 769.16 615.27 C 774.11 631.95 784.20 647.33 798.63 657.26 C 808.67 664.22 820.58 668.23 832.57 670.02 C 837.82 672.06 843.50 671.15 849.00 671.33 C 853.74 671.45 858.53 670.99 863.25 671.70 C 863.54 676.50 863.42 681.36 862.21 686.05 C 860.78 687.22 858.82 687.27 857.06 687.28 C 822.04 687.24 787.01 687.26 751.99 687.26 C 745.62 687.25 739.51 685.44 733.24 684.67 C 724.53 682.41 715.56 681.13 707.00 678.31 C 700.60 675.57 693.96 673.33 687.94 669.79 C 666.69 658.11 648.72 640.66 636.48 619.71 C 629.60 607.95 624.14 595.32 620.45 582.20 C 617.09 572.40 615.28 562.17 611.93 552.37 C 603.54 522.52 592.54 493.21 576.91 466.36 C 571.05 456.10 563.83 446.74 556.83 437.26 C 551.46 430.02 544.88 423.81 538.45 417.54 C 531.76 411.65 524.87 405.78 516.82 401.83 C 506.86 396.48 496.49 391.65 485.41 389.16 C 472.17 384.96 458.31 383.67 444.68 381.46 C 438.31 379.31 431.48 381.27 425.03 379.67 C 422.38 379.24 419.66 379.50 417.04 378.84 C 412.64 377.95 408.08 378.98 403.70 378.14 C 402.23 376.91 401.71 374.92 401.79 373.08 C 401.85 366.62 401.81 360.17 401.77 353.71 C 406.07 352.39 410.62 352.42 415.04 353.13 C 426.33 353.92 437.74 352.83 448.98 354.39 C 468.32 354.33 487.67 354.96 507.02 354.57 C 533.54 351.75 559.38 342.00 580.87 326.10 C 597.51 314.44 611.56 299.18 622.02 281.78 C 631.75 265.91 638.00 248.11 641.68 229.92 C 643.54 217.67 646.09 205.03 643.22 192.71 C 642.05 188.46 643.04 183.94 641.65 179.73 C 639.56 173.04 637.99 166.21 635.97 159.50 C 628.47 138.25 616.80 118.21 600.53 102.47 C 592.35 94.10 583.21 86.60 573.27 80.43 C 564.54 75.96 555.09 70.92 550.74 61.61 Z" />
<path fill="#040303" opacity="1.00" d=" M 861.86 249.61 C 863.54 249.58 865.30 249.33 866.95 249.88 C 868.35 254.01 868.60 258.41 869.72 262.62 C 877.39 291.51 893.63 318.15 916.20 337.82 C 936.57 355.98 962.13 368.47 988.95 373.22 C 991.00 374.47 990.15 377.10 990.28 379.08 C 975.98 380.76 962.25 385.81 949.34 392.03 C 914.15 409.25 886.17 440.71 873.41 477.77 C 870.88 485.06 868.15 492.52 868.23 500.33 C 866.18 501.22 863.98 501.54 861.77 501.51 C 853.40 450.07 815.84 404.70 767.04 386.51 C 757.87 382.50 747.98 380.88 738.39 378.26 C 738.48 376.76 738.51 375.26 738.47 373.76 C 758.31 369.95 777.62 362.82 794.55 351.71 C 825.12 332.26 848.19 301.36 858.18 266.53 C 859.78 260.99 861.37 255.39 861.86 249.61 Z" />
</g>
</svg>
